<svg width="100px" height="100px" viewBox="0 0 100 100" xmlns="http://www.w3.org/2000/svg" fill="#fff">
  <g transform="translate(50,50)">
    <g transform="scale(0.8)">
      <circle r="40" stroke="#fff" stroke-width="2" fill="none" />
      <g>
        <path d="M0,-35 L5,-25 L0,-15 L-5,-25 Z" fill="#fff" transform="rotate(0)" />
        <path d="M0,-35 L5,-25 L0,-15 L-5,-25 Z" fill="#fff" transform="rotate(30)" />
        <path d="M0,-35 L5,-25 L0,-15 L-5,-25 Z" fill="#fff" transform="rotate(60)" />
        <path d="M0,-35 L5,-25 L0,-15 L-5,-25 Z" fill="#fff" transform="rotate(90)" />
        <path d="M0,-35 L5,-25 L0,-15 L-5,-25 Z" fill="#fff" transform="rotate(120)" />
        <path d="M0,-35 L5,-25 L0,-15 L-5,-25 Z" fill="#fff" transform="rotate(150)" />
        <path d="M0,-35 L5,-25 L0,-15 L-5,-25 Z" fill="#fff" transform="rotate(180)" />
        <path d="M0,-35 L5,-25 L0,-15 L-5,-25 Z" fill="#fff" transform="rotate(210)" />
        <path d="M0,-35 L5,-25 L0,-15 L-5,-25 Z" fill="#fff" transform="rotate(240)" />
        <path d="M0,-35 L5,-25 L0,-15 L-5,-25 Z" fill="#fff" transform="rotate(270)" />
        <path d="M0,-35 L5,-25 L0,-15 L-5,-25 Z" fill="#fff" transform="rotate(300)" />
        <path d="M0,-35 L5,-25 L0,-15 L-5,-25 Z" fill="#fff" transform="rotate(330)" />
      </g>
    </g>
  </g>
</svg>
